<?xml version="1.0" encoding="UTF-8"?>
<svg xmlns="http://www.w3.org/2000/svg" viewBox="0 0 1990.53 1079.9">
  <defs>
    <style>
      .cls-1 {
        fill: #cfde87;
      }

      .cls-1, .cls-2, .cls-3, .cls-4, .cls-5, .cls-6, .cls-7, .cls-8 {
        stroke-width: 0px;
      }

      .cls-2 {
        fill: #010101;
      }

      .cls-4 {
        fill: #fcc554;
      }

      .cls-5 {
        fill: #a8c820;
      }

      .cls-6 {
        fill: #1e1e1c;
      }

      .cls-7 {
        fill: #fed485;
      }

      .cls-8 {
        fill: #fab613;
      }
    </style>
  </defs>
  <g id="Capa_3" data-name="Capa 3">
    <g>
      <g>
        <path class="cls-6" d="M237.76,282.5c-45.89,2.55-91.75,5.62-137.29,11.81-27.04,3.91-54.61,7.95-80.16,17.9-5.17,2.22-15.31,6.83-16.56,12.1,4.83,18.59,16.61,64.63,21.55,83.9,43.81,171.77,90.3,356.58,132.34,528.4.24,1.16.45,2.32.61,3.49,0,0,1.49,2.73,1.49,2.73.35.64.11,1.44-.53,1.79-.7.36-1.55.07-1.86-.66,0,0-1.56-2.93-1.56-2.93,0,0,2.45-.63,2.45-.63-.02.87.63,1.85,1.55,2.69.92.84,2.07,1.56,3.25,2.2,7.46,3.78,15.85,5.54,24.04,7.26,33.43,6.24,67.62,7.77,101.57,8.46-22.71.22-45.44-.36-68.08-2.25-16.99-1.56-34.11-3.28-50.57-8.09-4.69-1.62-13.89-4.21-14.37-10.24,0-.72.57-1.31,1.29-1.32.5,0,.93.27,1.16.68,0,0,1.6,2.92,1.6,2.92,0,0-2.39,1.13-2.39,1.13.09.19-.02-.03-.03-.04,0,0-.11-.18-.11-.18,0,0-.22-.37-.22-.37,0,0-.43-.76-.43-.76-.26-.46-.9-1.52-.91-2.01-34.63-136.48-73.75-287.1-107.92-424.21C34.97,465.32,12.24,375.05,0,324.71c.06-7.74,13.22-13.28,18.98-15.75,17.35-6.72,35.57-10.23,53.8-13.33,54.56-8.71,109.84-11.3,164.98-13.13h0Z"/>
        <path class="cls-6" d="M579.33,323.98c-47.53,198.47-100.8,410.98-151.21,608.96-1.32,4.76-2.08,9.57-2.01,14.54,0,0-.09,30.61-.09,30.61-.06,10.82-.33,66.8-.4,76.52,0,0-.02,3.83-.02,3.83v.48s0,.26,0,.26c-.05,3.06-2.85,5.26-5.16,6.58-10.5,5.41-22.32,6.94-33.77,8.85-31.66,4.48-63.68,5.47-95.61,5.28-18.72-.64-38.7-1.43-57.37-2.6-10.17-.75-20.4-1.22-30.46-2.96,5.04.82,10.14,1.12,15.22,1.47,22.6,1.34,46.13,1.82,68.81,2.29,33.03-.13,66.29-1.68,98.95-6.54,10.99-1.95,22.56-3.6,32.48-8.79,1.44-.89,3.05-1.9,3.36-3.51,0,0,0-.81,0-.81,0,0-.02-3.83-.02-3.83-.17-27.84-.43-79.46-.49-107.12-.11-5.23.68-10.62,2.06-15.69,0,0,3.7-14.85,3.7-14.85,48.33-193.09,101.08-400.81,152.04-592.96h0Z"/>
      </g>
      <path class="cls-8" d="M208.39,687.31c9.65,8.77,21.11,18.95,39.68,23.98,31.13,8.43,65.09-2.29,84.05-18.53,29.75-25.51,48.87-73.83,36.12-122.45-35.48-135.35-85.87-191.99-91.36-248.41C256.06,107.54,502.8,7.44,518.2,0c-170.76,139.88-195.55,235.98-183.7,299.28,14.48,77.19,100.57,114.31,131.01,256.25,9.12,42.53,11.72,82.1,3.82,126.95,0,0-54.95,217.85-64.17,254.36-33.64,3.95-78.31,7.58-120.91,7.26-40.47-.29-77.24-3.2-109.5-7.26-.78-2.38-2.51-6.85-4.04-12.58-29.11-108.81-48.92-202.07-56.72-237.62-4.13-25.53-12.3-78.23,17.86-138.32,14.44-28.79,32.74-50.08,47.71-64.61,21.01-21.68,38.04-33.18,49.16-27.33,8.1,4.27,13.83,16.25,9.87,24.19-5.13,10.29-22.6,6.11-38.4,13.01-40.74,17.79-37.09,94.67-36.84,98.99.46,7.79,4.16,57.55,45.05,94.74Z"/>
      <path class="cls-4" d="M182.97,919.02c-5.38-16.44-13.16-41.2-22.33-73.9-.52-1.85-1.06-3.75-1.35-4.84-7.14-27.24-23.31-76.88-23.31-122.12,37.22,86.78,101.54,114.51,154.21,108.78,136.46-14.83,155.54-245.01,140.6-291.99,51.22,69.97-12.47,258.68-22.68,305.58-.78,3.58-1.63,7.1-2.56,10.56-5.71,22.64-11.42,45.28-17.14,67.92-30.79,3.91-66.41,6.64-105.94,6.49-36.92-.15-70.33-2.78-99.52-6.49Z"/>
      <path class="cls-7" d="M393.93,850.37c-.25.29-.4.45-.41.47-23.03,52.93-75.85,62.86-120.11,63.72,0,0,47.49,1.3,105.94-6.36l14.58-57.83"/>
      <path class="cls-5" d="M585.92,1046.35l-41.7-27.44c-14.54-9.57-14.27-29.66.52-38.89l97.46-60.84c5.11-3.19,11.77,1.19,10.2,6.71l-30.75,108.44c-4.1,14.47-22.56,20.68-35.73,12.02Z"/>
      <path class="cls-5" d="M727.2,1050.69l-49.69,11.24c-17.33,3.92-33.54-9.42-31.38-25.83l14.19-108.09c.74-5.67,8.67-7.46,12.15-2.75l68.32,92.54c9.12,12.35,2.1,29.34-13.59,32.89Z"/>
      <path class="cls-5" d="M497.37,820.58l29.68-38.6c10.35-13.46,32.03-13.18,41.97.54l65.5,90.41c3.44,4.74-1.3,10.9-7.26,9.44l-116.97-28.66c-15.61-3.83-22.28-20.94-12.91-33.13Z"/>
      <path class="cls-5" d="M495.3,954.36l-11.39-46.21c-3.97-16.11,10.66-30.93,28.33-28.69l116.42,14.75c6.11.77,7.93,8.15,2.79,11.3l-100.86,61.93c-13.46,8.27-31.69,1.51-35.29-13.08Z"/>
      <path class="cls-8" d="M293.23,701.84s34.85-10.51,38.9-32.15c1.78-9.52-.55-14.88-3.72-17.9-4.93-4.7-13.53-4.31-17.32,1.22-1.2,1.75-1.98,4.07-1.76,7.12.75,10.15-2.6,32.34-16.1,41.71Z"/>
      <path class="cls-8" d="M183.09,600.96s-17.44-58.74,13.51-85.73c9.51-8.3,17.73-11.81,24.55-12.68,22.07-2.85,33.11,24.07,13.93,34.59-.17.09-.34.18-.51.27-17.14,8.99-49.68,35.56-51.48,63.55Z"/>
      <path class="cls-4" d="M298.44,699.01s20.94-11.03,27.15-20.98c3.11-4.98,3.71-8.2,1.81-9.76-2.25-1.84-7.24-2.34-8.5.19-.66,1.32-1.04,3.87-1.44,5.73-1.2,5.66-11.52,20.5-19.02,24.82Z"/>
      <path class="cls-4" d="M187.17,578.32c-1.29-6.96,16.62-42.84,33.74-52.05,17.42-9.37,18.31-.59,18.31-.59,0,0,2.69,6.22-7.15,10.06-19.58,7.63-39.57,32.17-44.9,42.58Z"/>
      <path class="cls-4" d="M173.74,517.11c7-18.36,23.03-38.03,40.01-46.89,9.94-5.18,15-5.76,17.49-4.57,1.58.76,3.68,2.28,4.5,3.74,1.29,2.31,2.35,12.36-3.29,14.71-15.84,6.58-38.75-1.73-58.7,33.01Z"/>
      <path class="cls-7" d="M200.7,557.09c1.05-3.59,13.48-21.33,22-25.91,8.67-4.66,9.12-.29,9.12-.29,0,0,1.34,3.1-3.56,5.01-9.75,3.8-23.9,16.26-27.55,21.2Z"/>
      <path class="cls-7" d="M193.42,491.12c6.89-4.5,20.83-10.79,28.91-12.83,4.73-1.19,6.8-.57,7.71.16.57.47.77,1.2.61,1.89-.23.96-1,2.56-3.62,2.99-7.36,1.2-24.53,4.09-33.6,7.78Z"/>
      <path class="cls-7" d="M312.2,690.03c2.52-1.83,9.84-6.9,12.46-11.75,1.34-2.47,1.79-3.94.87-4.69-1.08-.89-3.48-1.12-4.09.09-.32.63-.5,1.86-.69,2.76-.58,2.72-6.8,11.39-8.55,13.6Z"/>
      <path class="cls-1" d="M504.99,845.31c-4.55-2.71-6.21-8.13-4.04-12.72h0c1.68-3.55,5.69-5.76,9.83-5.18,4.71.65,10.78,2.61,16.79,5.63l70.05,35.26c5.81,2.93,5.35,3.98-1.02,2.34l-79.09-20.32c-4.91-1.26-9.23-3.05-12.52-5.01Z"/>
      <path class="cls-1" d="M519.75,964.07c-5.23,1.29-10.67-1.24-12.85-5.82h0c-1.69-3.55-.74-7.78,2.51-10.22,3.7-2.78,9.35-5.61,15.81-7.68l75.34-24.12c6.25-2,6.78-.98,1.18,2.28l-69.55,40.38c-4.32,2.51-8.66,4.25-12.44,5.18Z"/>
      <path class="cls-1" d="M611.31,1035.82c-2.98,4.18-8.85,5.66-13.78,3.58h0c-3.81-1.61-6.14-5.35-5.47-9.17.77-4.35,2.95-9.96,6.29-15.49l38.93-64.46c3.23-5.35,4.36-4.91,2.51.98l-22.93,73.03c-1.42,4.53-3.41,8.51-5.57,11.53Z"/>
      <path class="cls-1" d="M738.54,1032.7c.61,3.47-2.69,7.49-7.65,9.48h0c-3.84,1.54-8.02,1.33-10.07-.65-2.34-2.26-4.47-5.86-5.71-10.1l-14.49-49.44c-1.2-4.1-.09-4.58,2.48-1.05l31.83,43.73c1.98,2.71,3.17,5.52,3.61,8.03Z"/>
      <path class="cls-2" d="M549.38,742.44c-64.27,41.42-98.92,117.09-79.89,192.31,25.2,100.05,133.15,156.5,231.53,137.09,21.36-3.89,42.07-11.35,61.19-21.63,0,0,8.11-4.62,8.11-4.62-41.93,27.38-94.17,37.84-143.65,30.33-102.89-14.05-184.45-109.89-162.54-215.07,9.75-49.34,42.3-92.88,85.26-118.42h0Z"/>
    </g>
  </g>
  <g id="Capa_5" data-name="Capa 5">
    <g>
      <path class="cls-3" d="M549.47,692.8c0-10.8,16.04-19.53,35.85-19.53s35.85,8.73,35.85,19.53c0,0,.47,7.38,7.05,14,4.81,4.85,13.47,10.38,37.72,10.38s33.76-5.99,38.49-11.18c5.8-6.33,6.27-13.16,6.27-13.25v-43.87s-.47-7.38-7.05-14c-4.8-4.85-13.47-10.38-37.71-10.38-85.41-.04-116.47-37.96-116.47-63.48v-43.91c0-25.52,31.06-63.44,116.47-63.44s116.46,37.92,116.46,63.44c0,10.8-16.03,19.53-35.85,19.53s-35.62-8.65-35.85-19.36c0-.46-.54-7.68-7.05-14.22-4.8-4.85-13.47-10.38-37.71-10.38s-33.77,5.99-38.49,11.18c-5.81,6.33-6.28,13.16-6.28,13.24v43.91s.47,7.38,7.05,14c4.81,4.85,13.47,10.38,37.72,10.38,85.41,0,116.46,37.92,116.46,63.45v43.91c0,25.56-30.97,63.49-116.46,63.49s-116.47-37.92-116.47-63.45Z"/>
      <path class="cls-3" d="M902.98,624.46v112.25c0,10.8-16.04,19.53-35.85,19.53s-35.78-8.73-35.78-19.53v-263.52c0-10.8,16.03-19.53,35.85-19.53s35.85,8.73,35.85,19.53v112.25h89.59v-112.25c0-10.8,16.03-19.53,35.85-19.53s35.85,8.73,35.85,19.53v263.52c0,10.8-16.04,19.53-35.85,19.53s-35.85-8.73-35.85-19.53c-.08,0-.08-112.25-.08-112.25h-89.59Z"/>
      <path class="cls-3" d="M1113.23,692.8v-175.69c0-25.52,31.06-63.44,116.47-63.44s116.46,37.92,116.46,63.44v175.69c0,25.52-30.97,63.45-116.46,63.45s-116.47-37.92-116.47-63.45ZM1191.98,706.8c4.81,4.85,13.47,10.38,37.72,10.38s33.76-5.99,38.49-11.18c5.8-6.33,6.27-13.16,6.27-13.25v-175.65s-.47-7.38-7.05-14c-4.8-4.85-13.47-10.38-37.71-10.38s-33.77,5.99-38.49,11.18c-5.81,6.33-6.28,13.16-6.28,13.25v175.48c.08.63.62,7.76,7.05,14.17Z"/>
      <path class="cls-3" d="M1507.16,736.75c0,10.8-16.03,19.53-35.85,19.53s-35.85-8.73-35.85-19.53v-244.03h-44.75c-19.83,0-35.85-8.77-35.85-19.53s16.03-19.53,35.85-19.53h161.22c19.82,0,35.85,8.73,35.85,19.53s-16.04,19.53-35.85,19.53h-44.76v244.03Z"/>
      <path class="cls-3" d="M1668.23,736.75c0,10.8-16.03,19.53-35.85,19.53s-35.85-8.73-35.85-19.53v-244.03h-44.75c-19.83,0-35.85-8.77-35.85-19.53s16.03-19.53,35.85-19.53h161.22c19.82,0,35.85,8.73,35.85,19.53s-16.04,19.53-35.85,19.53h-44.76v244.03Z"/>
      <path class="cls-3" d="M1873.99,624.5c-46.85-.04-116.46-16.91-116.46-63.48v-87.82c0-10.8,16.03-19.53,35.85-19.53s35.85,8.73,35.85,19.53v87.82c0,13.2,10.22,17.93,19.05,20.54,12.23,3.63,25.94,3.84,26.1,3.84,23.92,0,32.52-5.57,37.4-10.38,6.66-6.66,7.05-14.13,7.05-14.22v-87.65c0-10.8,16.03-19.53,35.85-19.53s35.85,8.73,35.85,19.53v219.6c0,25.52-31.06,63.45-116.47,63.45s-116.54-37.88-116.54-63.4v-21.98c0-10.8,16.03-19.53,35.85-19.53s35.85,8.73,35.85,19.53v21.98s.46,7.38,7.05,14c4.8,4.85,13.47,10.38,37.71,10.38s32.91-5.57,37.72-10.38c6.66-6.66,7.05-14.13,7.05-14.21l.08-72.22c-12.86,2.62-27.8,4.13-44.84,4.13Z"/>
    </g>
  </g>
</svg>